<?xml version="1.0" standalone="no"?>
<!DOCTYPE svg PUBLIC "-//W3C//DTD SVG 20010904//EN"
 "http://www.w3.org/TR/2001/REC-SVG-20010904/DTD/svg10.dtd">
<svg version="1.0" xmlns="http://www.w3.org/2000/svg"
 width="1000.000000pt" height="1000.000000pt" viewBox="0 0 1000.000000 1000.000000"
 preserveAspectRatio="xMidYMid meet">
<metadata>
Created by potrace 1.14, written by Peter Selinger 2001-2017
</metadata>
<g transform="translate(0.000000,1000.000000) scale(0.100000,-0.100000)"
fill="#000000" stroke="none">
<path d="M4755 7920 c-140 -10 -301 -34 -400 -59 -22 -6 -53 -13 -70 -16 -16
-4 -39 -10 -50 -15 -11 -4 -40 -13 -65 -20 -25 -6 -53 -16 -62 -21 -10 -5 -26
-9 -36 -9 -10 0 -22 -4 -27 -8 -6 -4 -28 -14 -50 -21 -22 -7 -50 -17 -62 -22
-13 -5 -33 -13 -45 -18 -113 -45 -368 -172 -368 -183 0 -4 -9 -8 -20 -8 -11 0
-20 -4 -20 -9 0 -5 -8 -11 -17 -14 -24 -8 -77 -40 -81 -49 -2 -5 -9 -8 -16 -8
-7 0 -21 -8 -32 -18 -10 -10 -35 -28 -54 -42 -19 -13 -37 -27 -40 -30 -3 -3
-21 -17 -40 -30 -19 -14 -45 -34 -57 -47 -13 -12 -39 -34 -60 -50 -47 -35
-353 -341 -353 -353 0 -5 -10 -19 -23 -32 -12 -13 -33 -39 -47 -58 -13 -19
-32 -42 -42 -51 -10 -9 -18 -20 -18 -25 0 -5 -14 -25 -30 -44 -16 -19 -30 -41
-30 -47 0 -7 -4 -13 -9 -13 -5 0 -11 -8 -14 -17 -6 -18 -37 -73 -47 -83 -18
-18 -190 -362 -190 -380 0 -6 -4 -18 -9 -28 -15 -29 -29 -65 -42 -107 -7 -22
-17 -44 -21 -49 -4 -6 -8 -20 -8 -32 0 -13 -4 -25 -9 -28 -5 -3 -11 -18 -14
-33 -3 -16 -11 -47 -16 -70 -26 -103 -30 -122 -44 -188 -16 -75 -30 -165 -48
-315 -13 -107 -6 -536 10 -635 31 -195 35 -215 63 -330 5 -22 12 -52 15 -68 3
-15 9 -30 14 -33 5 -3 9 -15 9 -26 0 -29 42 -154 71 -210 5 -10 9 -22 9 -28 0
-24 177 -393 191 -398 5 -2 9 -8 9 -13 0 -9 99 -180 110 -189 3 -3 17 -21 30
-40 14 -19 32 -44 42 -54 10 -11 18 -24 18 -28 0 -5 16 -25 35 -44 20 -19 32
-40 29 -46 -4 -7 -2 -8 4 -4 7 4 12 2 12 -3 0 -14 327 -341 341 -341 5 0 7 -4
4 -10 -3 -5 1 -10 10 -10 10 0 13 -5 9 -12 -4 -6 -3 -8 4 -4 6 3 27 -9 46 -29
19 -19 39 -35 44 -35 5 0 23 -13 40 -30 18 -16 35 -30 39 -30 5 0 24 -14 43
-30 19 -16 41 -30 48 -30 6 0 12 -4 12 -10 0 -5 9 -10 20 -10 11 0 20 -4 20
-8 0 -5 12 -15 28 -23 15 -8 29 -16 32 -19 13 -13 102 -59 304 -156 16 -8 35
-14 43 -14 7 0 13 -4 13 -8 0 -4 21 -14 48 -21 26 -8 54 -18 62 -22 38 -18 70
-30 135 -50 39 -12 79 -25 90 -30 22 -8 61 -17 113 -26 17 -3 32 -9 32 -14 0
-5 18 -9 40 -9 22 0 40 -4 40 -8 0 -5 26 -10 57 -11 31 -1 60 -4 65 -7 24 -15
183 -27 423 -31 256 -5 337 0 490 27 28 5 82 14 120 20 39 7 84 16 100 20 17
5 50 14 75 20 25 7 53 16 62 21 10 5 27 9 37 9 11 0 33 5 48 11 15 6 39 16 53
21 14 6 33 14 42 19 10 5 27 9 37 9 11 0 22 4 25 8 3 4 28 14 55 22 28 7 51
17 51 22 0 4 7 8 15 8 14 0 295 137 305 149 3 3 25 17 50 30 25 14 47 27 50
30 13 16 68 40 75 33 5 -4 5 -1 1 6 -4 6 -2 12 4 12 6 0 22 11 36 25 14 14 29
25 33 25 5 0 23 13 41 30 18 16 37 27 43 23 6 -3 7 -1 3 5 -4 7 -2 12 4 12 6
0 27 16 46 35 19 20 39 33 45 29 5 -3 8 -2 7 3 -2 4 -1 8 2 8 10 0 306 301
336 341 16 21 41 52 57 68 15 16 27 33 27 38 0 5 11 20 25 34 14 14 25 29 25
34 0 5 10 19 23 32 13 13 34 43 47 68 14 25 28 47 31 50 3 3 16 25 30 50 13
25 27 47 30 50 12 10 149 291 149 305 0 8 4 15 8 15 5 0 15 23 22 51 8 27 18
52 22 55 4 3 8 16 8 30 0 13 5 24 10 24 6 0 10 11 10 24 0 14 5 28 10 31 6 3
10 17 10 30 0 13 5 27 10 30 6 3 10 19 10 35 0 16 5 32 10 35 6 3 10 19 10 35
0 16 4 31 9 34 5 3 11 20 14 38 3 18 11 56 17 83 6 28 15 79 20 115 5 36 14
97 21 135 14 90 24 655 11 655 -5 0 -12 28 -16 63 -6 66 -19 150 -35 232 -17
88 -22 110 -31 130 -4 11 -13 40 -20 65 -27 105 -55 189 -79 240 -4 8 -14 36
-22 63 -7 26 -17 47 -21 47 -4 0 -8 9 -8 20 0 11 -4 20 -10 20 -5 0 -10 7 -10
15 0 8 -4 23 -10 33 -5 9 -27 53 -48 97 -51 103 -86 169 -93 175 -3 3 -16 25
-30 50 -13 25 -32 54 -41 64 -10 11 -18 26 -18 33 0 7 -4 13 -8 13 -4 0 -16
13 -25 30 -10 16 -23 35 -30 42 -7 7 -24 29 -37 48 -13 19 -30 41 -37 48 -7 8
-26 30 -41 50 -34 46 -307 318 -352 352 -18 14 -43 34 -54 45 -12 11 -37 31
-56 45 -19 13 -37 27 -40 30 -3 3 -21 17 -40 30 -19 13 -41 30 -48 37 -7 7
-17 13 -22 13 -5 0 -15 6 -22 13 -8 6 -23 17 -33 23 -57 32 -70 39 -75 44 -9
9 -51 31 -175 94 -106 54 -152 75 -230 105 -11 5 -31 13 -45 19 -14 6 -43 16
-65 23 -22 7 -44 17 -50 21 -5 4 -17 8 -27 8 -10 0 -26 4 -36 9 -16 9 -116 39
-197 60 -53 13 -123 27 -215 41 -41 6 -102 15 -135 20 -84 13 -438 19 -570 10z
m485 -550 c0 -6 31 -10 73 -10 50 0 67 -3 57 -10 -11 -7 5 -10 52 -10 37 0 70
-4 73 -10 3 -5 22 -10 41 -10 21 0 33 -4 29 -10 -4 -6 6 -10 22 -10 38 0 133
-23 133 -32 0 -5 11 -8 25 -8 14 0 33 -4 43 -9 9 -5 28 -13 42 -18 44 -18 84
-35 102 -44 10 -5 25 -9 33 -9 8 0 15 -4 15 -10 0 -5 6 -10 14 -10 12 0 135
-59 146 -70 10 -10 65 -41 83 -47 9 -3 17 -9 17 -14 0 -5 5 -9 11 -9 10 0 98
-56 109 -70 3 -3 21 -17 40 -30 19 -13 37 -27 40 -30 3 -3 21 -17 40 -30 57
-40 352 -339 408 -415 28 -38 55 -74 60 -80 27 -34 72 -105 72 -114 0 -6 4
-11 9 -11 5 0 11 -8 14 -17 8 -24 40 -77 50 -81 4 -2 7 -12 7 -23 0 -10 5 -19
10 -19 6 0 10 -9 10 -20 0 -11 5 -20 10 -20 6 0 10 -6 10 -13 0 -7 13 -39 30
-72 16 -33 30 -68 30 -77 0 -10 5 -18 10 -18 6 0 10 -10 10 -23 0 -13 4 -27 8
-32 5 -6 19 -44 31 -85 13 -41 27 -84 31 -95 5 -11 11 -33 15 -50 3 -16 11
-48 16 -70 11 -42 20 -99 41 -260 20 -158 10 -645 -13 -645 -5 0 -9 -22 -9
-50 0 -27 -4 -50 -10 -50 -5 0 -10 -18 -10 -39 0 -22 -4 -43 -10 -46 -6 -3
-10 -19 -10 -35 0 -16 -4 -32 -10 -35 -5 -3 -10 -19 -10 -35 0 -16 -4 -32 -10
-35 -5 -3 -10 -17 -10 -30 0 -13 -4 -27 -10 -30 -5 -3 -10 -17 -10 -31 0 -13
-4 -24 -10 -24 -5 0 -10 -11 -10 -24 0 -14 -4 -28 -10 -31 -5 -3 -10 -15 -10
-26 0 -10 -4 -19 -10 -19 -5 0 -10 -6 -10 -13 0 -15 -25 -70 -72 -162 -17 -33
-36 -70 -42 -82 -6 -13 -14 -23 -18 -23 -5 0 -8 -9 -8 -20 0 -11 -4 -20 -10
-20 -5 0 -10 -6 -10 -12 0 -7 -14 -29 -30 -48 -16 -19 -30 -39 -30 -43 0 -12
-110 -117 -122 -117 -6 0 -22 -13 -36 -28 -29 -31 -179 -133 -252 -173 -25
-13 -47 -26 -50 -29 -11 -11 -134 -70 -146 -70 -8 0 -14 -4 -14 -10 0 -5 -8
-10 -18 -10 -10 0 -22 -4 -28 -9 -16 -16 -251 -91 -283 -91 -17 0 -31 -4 -31
-10 0 -5 -17 -10 -38 -10 -21 0 -42 -4 -48 -9 -14 -14 -124 -22 -371 -27 -150
-3 -223 -1 -223 6 0 6 -28 10 -70 10 -40 0 -70 4 -70 10 0 6 -22 10 -50 10
-27 0 -50 5 -50 10 0 6 -22 10 -50 10 -27 0 -50 5 -50 10 0 6 -11 10 -24 10
-14 0 -28 4 -31 10 -3 6 -15 10 -26 10 -10 0 -27 4 -37 9 -9 5 -30 14 -47 21
-16 7 -38 16 -47 21 -10 5 -25 9 -33 9 -8 0 -15 5 -15 10 0 6 -9 10 -20 10
-11 0 -20 5 -20 10 0 6 -9 10 -20 10 -11 0 -20 5 -20 10 0 6 -9 10 -20 10 -11
0 -20 3 -20 8 0 4 -21 18 -47 32 -27 14 -54 30 -61 37 -7 7 -17 13 -22 13 -5
0 -15 6 -22 13 -7 7 -42 33 -78 57 -68 48 -248 221 -290 280 -13 19 -35 45
-47 58 -13 13 -23 27 -23 32 0 5 -6 15 -13 22 -7 7 -24 33 -38 58 -13 25 -26
47 -29 50 -12 12 -30 51 -30 65 0 8 -4 15 -10 15 -5 0 -10 9 -10 20 0 11 -4
20 -8 20 -5 0 -15 23 -22 50 -7 28 -17 50 -22 50 -4 0 -8 14 -8 30 0 17 -4 30
-10 30 -5 0 -10 15 -10 34 0 19 -4 38 -10 41 -5 3 -10 28 -10 56 0 27 -4 49
-10 49 -13 0 -14 502 -1 516 5 5 12 29 15 54 9 81 18 120 27 126 5 3 9 14 9
25 0 10 4 27 9 37 5 9 13 28 19 42 26 68 110 227 130 248 6 7 12 17 12 22 0 5
6 15 13 22 7 7 24 29 37 48 13 19 27 37 30 40 3 3 25 30 50 60 45 55 112 120
166 162 16 13 35 28 42 35 7 7 17 13 22 13 5 0 15 7 23 15 14 14 117 68 187
98 58 26 132 49 185 60 62 12 424 20 408 9 -7 -4 12 -8 43 -8 53 -1 120 -16
156 -35 10 -5 23 -9 28 -9 6 0 30 -9 52 -20 23 -11 48 -20 55 -20 7 0 13 -4
13 -10 0 -5 9 -10 19 -10 11 0 21 -3 23 -7 2 -5 23 -19 48 -32 25 -14 47 -27
50 -31 3 -3 21 -17 40 -30 19 -14 67 -56 105 -95 39 -38 81 -86 95 -105 13
-19 27 -37 30 -40 13 -11 88 -168 99 -210 7 -25 17 -56 23 -70 13 -33 12 -360
-2 -374 -5 -5 -10 -22 -10 -37 0 -15 -4 -31 -10 -34 -5 -3 -10 -15 -10 -25 0
-20 -77 -177 -97 -198 -7 -7 -13 -18 -13 -23 0 -16 -179 -189 -195 -189 -8 0
-15 -3 -15 -7 0 -12 -96 -55 -181 -82 -44 -14 -265 -15 -274 -1 -3 6 -15 10
-26 10 -27 0 -99 23 -99 32 0 5 -9 8 -20 8 -11 0 -20 5 -20 10 0 6 -6 10 -12
10 -7 0 -26 11 -42 25 -16 14 -32 25 -36 25 -14 0 -130 121 -130 135 0 8 -4
15 -10 15 -5 0 -10 6 -10 13 0 7 -9 32 -20 55 -16 33 -20 61 -20 146 0 58 5
118 11 133 23 57 74 153 81 153 5 0 8 9 8 20 0 11 4 20 8 20 4 0 12 26 18 57
11 60 5 110 -22 170 -18 40 -88 113 -108 113 -9 0 -16 3 -16 8 0 11 -75 32
-115 32 -42 0 -125 -21 -125 -32 0 -4 -7 -8 -15 -8 -19 0 -75 -55 -94 -93 -8
-15 -18 -27 -23 -27 -4 0 -8 -9 -8 -20 0 -11 -3 -20 -8 -20 -7 0 -44 -69 -64
-120 -6 -14 -14 -33 -19 -42 -5 -10 -9 -27 -9 -37 0 -11 -4 -22 -9 -25 -15
-10 -23 -83 -28 -261 -3 -111 0 -184 7 -210 43 -150 95 -282 120 -305 3 -3 14
-22 25 -42 21 -38 80 -112 126 -157 63 -63 134 -124 155 -133 13 -6 24 -14 24
-18 0 -3 22 -17 50 -31 27 -13 50 -27 50 -31 0 -5 9 -8 20 -8 11 0 20 -4 20
-10 0 -5 7 -10 15 -10 8 0 23 -4 33 -9 18 -9 65 -29 97 -41 11 -4 40 -13 65
-20 25 -6 60 -16 79 -22 46 -14 430 -13 444 1 6 6 28 11 49 11 21 0 38 5 38
10 0 6 11 10 25 10 14 0 33 4 43 9 9 5 28 13 42 18 55 22 206 98 218 110 7 7
17 13 22 13 5 0 15 6 22 13 7 6 30 25 51 40 52 39 187 174 217 217 13 19 31
42 40 50 8 8 21 27 29 43 8 15 18 27 23 27 4 0 8 9 8 19 0 11 3 21 8 23 10 4
72 128 72 144 0 8 4 14 8 14 5 0 15 23 22 50 7 28 17 50 21 50 4 0 10 16 13
35 3 19 9 51 12 70 3 19 10 35 14 35 14 0 22 115 22 305 0 186 -7 283 -23 300
-5 5 -9 22 -9 37 0 16 -4 36 -9 46 -5 9 -14 35 -20 57 -15 51 -23 70 -50 123
-11 24 -21 50 -21 58 0 8 -3 14 -8 14 -4 0 -15 17 -24 38 -22 47 -48 91 -70
116 -10 11 -18 24 -18 29 0 5 -8 17 -18 26 -10 9 -29 32 -42 51 -32 45 -135
148 -180 180 -19 13 -42 31 -50 40 -8 9 -31 27 -50 40 -19 14 -44 32 -54 42
-11 10 -26 18 -33 18 -7 0 -13 4 -13 9 0 5 -8 11 -17 14 -18 6 -73 37 -83 47
-12 12 -51 30 -65 30 -8 0 -15 5 -15 10 0 6 -9 10 -20 10 -11 0 -20 5 -20 10
0 6 -9 10 -19 10 -11 0 -23 5 -26 10 -3 6 -17 10 -31 10 -13 0 -24 5 -24 10 0
6 -11 10 -24 10 -14 0 -28 5 -31 10 -3 6 -19 10 -36 10 -16 0 -29 5 -29 10 0
6 -15 10 -33 10 -18 0 -37 4 -43 9 -10 10 -22 12 -229 36 -119 14 -162 15
-285 5 -80 -7 -158 -16 -174 -21 -16 -5 -42 -9 -57 -9 -15 0 -31 -4 -34 -10
-3 -5 -21 -10 -40 -10 -19 0 -37 -4 -40 -10 -3 -5 -17 -10 -31 -10 -13 0 -33
-4 -44 -10 -11 -5 -29 -14 -40 -20 -11 -5 -25 -10 -30 -10 -6 0 -30 -9 -52
-20 -23 -11 -48 -20 -55 -20 -7 0 -13 -4 -13 -10 0 -5 -9 -10 -20 -10 -11 0
-20 -4 -20 -10 0 -5 -9 -10 -20 -10 -11 0 -20 -4 -20 -10 0 -5 -5 -10 -11 -10
-5 0 -37 -18 -69 -40 -32 -22 -62 -40 -66 -40 -4 0 -14 -8 -23 -18 -9 -10 -31
-29 -50 -42 -85 -59 -303 -278 -332 -332 -7 -13 -20 -30 -31 -39 -10 -9 -18
-20 -18 -25 0 -5 -14 -25 -30 -44 -16 -19 -30 -41 -30 -47 0 -7 -4 -13 -10
-13 -5 0 -10 -7 -10 -15 0 -9 -9 -25 -20 -37 -11 -12 -20 -28 -20 -35 0 -7 -4
-13 -10 -13 -5 0 -10 -9 -10 -20 0 -11 -4 -20 -10 -20 -5 0 -10 -9 -10 -20 0
-11 -4 -20 -10 -20 -5 0 -10 -9 -10 -20 0 -11 -4 -20 -10 -20 -5 0 -10 -9 -10
-20 0 -11 -4 -20 -8 -20 -5 0 -15 -23 -22 -51 -8 -27 -18 -52 -22 -55 -4 -3
-8 -16 -8 -30 0 -13 -4 -24 -10 -24 -5 0 -10 -11 -10 -24 0 -14 -4 -27 -9 -30
-5 -3 -12 -22 -15 -41 -3 -19 -9 -51 -12 -70 -3 -19 -10 -38 -15 -41 -5 -3 -9
-23 -9 -44 0 -21 -4 -42 -10 -45 -5 -3 -10 -33 -10 -66 0 -34 -4 -59 -10 -59
-7 0 -9 -80 -7 -242 4 -225 9 -277 36 -413 6 -27 13 -65 17 -83 3 -18 10 -35
15 -38 5 -3 9 -15 9 -27 0 -24 22 -93 33 -103 4 -4 7 -18 7 -31 0 -13 4 -23 8
-23 5 0 15 -23 22 -50 7 -28 17 -50 22 -50 4 0 8 -9 8 -20 0 -11 5 -20 10 -20
6 0 10 -6 10 -14 0 -7 7 -26 14 -42 8 -15 12 -32 9 -37 -3 -6 -1 -7 5 -3 7 4
12 1 12 -8 0 -9 5 -16 10 -16 6 0 10 -9 10 -20 0 -11 4 -20 9 -20 5 0 14 -13
21 -30 7 -16 16 -30 21 -30 5 0 9 -7 9 -15 0 -9 11 -27 25 -41 14 -14 25 -29
25 -33 0 -4 11 -21 25 -37 14 -16 25 -33 25 -37 0 -4 16 -23 35 -43 19 -19 35
-39 35 -44 0 -12 157 -170 169 -170 5 0 41 -31 80 -70 39 -38 77 -70 84 -70 7
0 19 -9 27 -20 8 -11 19 -20 25 -20 5 0 26 -14 45 -30 19 -16 40 -30 45 -30 6
0 17 -9 25 -20 8 -11 22 -20 32 -20 10 0 18 -4 18 -10 0 -5 7 -10 16 -10 9 0
24 -8 33 -17 9 -10 23 -19 31 -21 8 -2 17 -8 18 -13 2 -5 9 -9 16 -9 18 0 66
-24 66 -32 0 -5 9 -8 20 -8 11 0 20 -4 20 -10 0 -5 9 -10 20 -10 11 0 20 -4
20 -10 0 -5 9 -10 20 -10 11 0 20 -4 20 -8 0 -4 12 -9 27 -10 15 -1 29 -6 32
-10 3 -5 27 -15 54 -23 53 -15 62 -29 17 -29 -16 0 -30 5 -30 10 0 6 -27 10
-60 10 -33 0 -60 4 -60 10 0 6 -18 10 -40 10 -22 0 -40 5 -40 10 0 6 -18 10
-40 10 -22 0 -40 5 -40 10 0 6 -15 10 -34 10 -19 0 -37 4 -40 8 -3 4 -28 14
-55 22 -28 7 -51 17 -51 22 0 4 -13 8 -30 8 -16 0 -30 5 -30 10 0 6 -7 10 -15
10 -9 0 -35 9 -57 20 -23 11 -48 20 -55 20 -7 0 -13 5 -13 10 0 6 -9 10 -20
10 -11 0 -20 5 -20 10 0 6 -9 10 -20 10 -11 0 -20 5 -20 10 0 6 -9 10 -20 10
-11 0 -20 5 -20 10 0 6 -6 10 -13 10 -7 0 -23 9 -35 20 -12 11 -27 20 -34 20
-8 0 -20 9 -28 20 -8 11 -22 20 -32 20 -10 0 -18 4 -18 8 0 5 -12 15 -27 23
-16 8 -35 22 -44 31 -9 10 -21 18 -26 18 -6 0 -23 12 -39 28 -16 15 -44 38
-62 50 -18 13 -29 28 -26 34 4 7 2 8 -4 4 -12 -7 -312 284 -312 302 0 5 -17
27 -37 49 -21 21 -44 51 -52 66 -8 15 -18 27 -23 27 -4 0 -8 6 -8 13 0 7 -8
22 -17 33 -10 10 -24 31 -32 47 -8 15 -18 27 -23 27 -4 0 -8 9 -8 20 0 11 -4
20 -9 20 -5 0 -11 8 -14 18 -8 23 -40 76 -49 80 -5 2 -8 12 -8 23 0 10 -4 19
-10 19 -5 0 -10 9 -10 20 0 11 -4 20 -10 20 -5 0 -10 7 -10 15 0 8 -4 23 -9
33 -38 76 -51 106 -51 121 0 9 -4 21 -8 27 -7 7 -37 99 -83 250 -5 17 -9 39
-9 50 0 11 -4 24 -9 30 -5 5 -12 29 -15 54 -3 25 -11 83 -18 130 -22 156 -14
580 13 664 5 16 9 44 9 62 0 37 18 119 31 146 5 10 9 29 9 43 0 14 4 33 9 43
5 9 19 51 32 92 12 41 31 95 42 120 10 25 24 56 29 70 6 14 14 33 19 42 5 10
9 25 9 33 0 8 5 15 10 15 6 0 10 9 10 20 0 11 5 20 10 20 6 0 10 9 10 20 0 11
5 20 10 20 6 0 10 9 10 20 0 11 5 20 10 20 6 0 10 6 10 13 0 7 9 23 20 35 11
12 20 26 20 32 0 6 9 20 20 32 11 12 20 28 20 35 0 7 5 13 10 13 6 0 10 6 10
14 0 7 14 27 30 44 17 18 30 37 30 43 0 6 14 24 30 39 17 15 30 33 30 39 0 14
367 381 382 381 6 0 18 8 27 18 9 10 32 29 51 42 19 13 37 27 40 30 10 13 99
70 108 70 6 0 12 3 14 8 12 27 306 173 411 203 26 7 47 17 47 21 0 4 14 8 30
8 17 0 30 5 30 10 0 6 13 10 29 10 17 0 33 5 36 10 3 6 21 10 40 10 19 0 37 5
40 10 3 6 22 10 41 10 19 0 34 5 34 10 0 6 27 10 60 10 33 0 60 4 60 10 0 6
30 10 69 10 39 0 73 5 76 10 4 6 98 10 251 10 156 0 244 -4 244 -10z"/>
</g>
</svg>
